# xmcd
#
# Track frame offsets: 
#        150
#        11075
#        25524
#        41602
#        50040
#        60636
#        74203
#        86077
#        96738
#        110031
#        123593
#        136564
#
# Disc length: 2046 seconds
#
# Revision: 0
# Processed by: cddbd v1.5PL3 Copyright (c) Steve Scherf et al.
# Submitted via: ExactAudioCopy v0.95a5
#
DISCID=b007fc0c
DTITLE=The Suggins Brothers - Glass Tracks
DYEAR=2003
DGENRE=Bluegrass
TTITLE0=Ashes Of Love
TTITLE1=I Cried Again
TTITLE2=All I Ever Loved Was You
TTITLE3=Darcy Farrow
TTITLE4=Love Please Come Home
TTITLE5=It Takes One To Know One
TTITLE6=Nashville Skyline Rag
TTITLE7=No Time To Kill
TTITLE8=So Afraid Of Losing You Again
TTITLE9=He Took Your Place
TTITLE10=Rank Stranger 
TTITLE11=White Dove
EXTD=
EXTT0=
EXTT1=
EXTT2=
EXTT3=
EXTT4=
EXTT5=
EXTT6=
EXTT7=
EXTT8=
EXTT9=
EXTT10=
EXTT11=
PLAYORDER=
